<?xml version="1.0" encoding="UTF-8"?>
<!DOCTYPE svg PUBLIC "-//W3C//DTD SVG 1.1//EN" "http://www.w3.org/Graphics/SVG/1.1/DTD/svg11.dtd">
<!-- Creator: CorelDRAW 2018 (64 Bit Versão de avaliação) -->
<svg xmlns="http://www.w3.org/2000/svg" xml:space="preserve" width="279.459mm" height="99.1816mm" version="1.1" style="shape-rendering:geometricPrecision; text-rendering:geometricPrecision; image-rendering:optimizeQuality; fill-rule:evenodd; clip-rule:evenodd"
viewBox="0 0 27945.92 9918.16"
 xmlns:xlink="http://www.w3.org/1999/xlink">
 <defs>
  <style type="text/css">
   <![CDATA[
    .fil0 {fill:white;fill-rule:nonzero}
   ]]>
  </style>
 </defs>
 <g id="Camada_x0020_1">
  <metadata id="CorelCorpID_0Corel-Layer"/>
  <g id="_1900483518144">
   <path class="fil0" d="M13663.35 84.96c135.76,68.92 238.69,168.61 308.81,299.05 70.1,130.44 88.23,269.18 54.37,416.23 -19.72,113.81 -64.54,189.64 -134.47,227.47 -69.94,37.83 -123.41,62.27 -160.41,73.35 -74.02,22.14 -140.46,49.66 -199.33,82.57 -58.86,32.92 -113.87,71.52 -165.02,115.8 -58.58,44.91 -113.35,93.52 -164.32,145.8 -94.66,95.97 -189.24,195.94 -283.72,299.91 -79.79,94.74 -172.23,206.55 -277.31,335.43 -105.09,128.89 -207.85,277.62 -308.29,446.18 -331.06,508.17 -650.05,1055.4 -956.94,1641.7 -264.12,502.63 -535.77,1082.02 -814.96,1738.16 -279.18,656.13 -507.04,1356.11 -683.58,2099.93 -27.34,106.44 -62.31,205.49 -104.9,297.16 -35.35,83.06 -85.66,163.34 -150.94,240.85 -65.28,77.52 -138.56,131.66 -219.84,162.41 -162.73,53.51 -311.33,73.79 -445.79,60.86 -156.78,-11.09 -291.89,-52.02 -405.33,-122.79 -113.45,-70.76 -208.3,-143.07 -284.55,-216.91 -84.24,-97.21 -149.97,-199.98 -197.2,-308.26 -47.25,-108.29 -82.85,-197.51 -106.84,-267.65 -87.59,-241.19 -147.92,-512.68 -181.01,-814.46 -33.09,-301.79 -49.72,-616.95 -49.89,-945.5l0.28 12c-7.62,-7.39 -7.81,-15.39 -0.56,-24 -1.09,-368.54 10.92,-734.15 36.05,-1096.84 25.12,-362.69 56.75,-685.85 94.89,-969.48 37.03,-331.61 85.49,-652.15 145.4,-961.62 -230.45,347.59 -464.52,699.48 -702.22,1055.7 -209.06,305.75 -443.5,641.66 -703.33,1007.7 -259.84,366.05 -516.32,715.79 -769.46,1049.23 -600.19,794.84 -1180.15,1417.72 -1739.88,1868.64 -559.73,450.91 -1068.21,781.4 -1525.45,991.46 -457.24,210.06 -853.2,330.91 -1187.86,362.56 -334.68,31.65 -577.05,25.62 -727.13,-18.07 -172.6,-49.86 -306.4,-114.94 -401.43,-195.24 -95.03,-80.3 -165.99,-166.6 -212.85,-258.9 -15.8,-38.75 -26.63,-103.98 -32.48,-195.65 -5.86,-91.67 42.63,-169.81 145.48,-234.39 44.09,-27.68 84.86,-37.06 122.34,-28.14 37.47,8.93 75.09,23.85 112.84,44.77 15.06,6.77 33.85,13.24 56.35,19.39 15.06,6.77 31.99,13.39 50.77,19.85 18.78,6.47 35.61,9.08 50.49,7.85 395.96,39.41 827.8,-60.35 1295.55,-299.34 467.75,-238.97 948.43,-563.15 1442.04,-972.54 493.61,-409.4 987.64,-880.94 1482.1,-1414.61 494.44,-533.68 966.25,-1079.51 1415.42,-1637.5 -39.61,-100.9 -116.65,-208.73 -231.11,-323.5 -114.46,-114.75 -236.27,-224.89 -365.43,-330.43 -129.16,-105.53 -250.55,-197.67 -364.18,-276.44 -113.63,-78.76 -189.32,-128.61 -227.07,-149.53 -37.94,-28.92 -72.25,-62.16 -102.94,-99.68 -30.68,-37.54 -53.93,-75.69 -69.73,-114.45 -23.25,-38.15 -42.86,-80.6 -58.86,-127.36 -23.99,-70.15 -38.59,-137.05 -43.79,-200.74 -5.2,-63.68 -4.74,-123.81 1.41,-180.42 5.95,-64.6 15.72,-125.51 29.3,-182.73 54.32,-228.87 178.23,-429.42 371.76,-601.68 193.52,-172.25 408.1,-320.19 643.73,-443.82 272.1,-158.72 555.82,-298.34 851.16,-418.9 258.52,-101.49 543.39,-191.13 854.64,-268.93 311.24,-77.79 627.36,-105.9 948.36,-84.33 112.14,14.78 220.66,33.86 325.55,57.26 90.02,24.62 182.02,55.09 276.03,91.39 94.01,36.32 171.52,84.01 232.51,143.08 98.76,79.99 168.45,192.44 209.08,337.33 40.63,144.89 37.78,343.47 -8.54,595.73 -54.13,236.86 -114.4,530.32 -180.82,880.4 -66.4,350.07 -132.17,728.14 -197.29,1134.19 -65.1,406.07 -124.41,821.67 -177.9,1246.8 -53.49,425.13 -86.99,828.58 -100.49,1210.35 -13.5,381.76 -3.66,725.54 29.52,1031.32 33.19,305.79 100.17,542.67 200.97,710.64 124.08,-755.52 333.81,-1514.1 629.18,-2275.75 295.38,-761.65 613.71,-1497.15 955.02,-2206.5 369.58,-775.8 698.19,-1389.94 985.83,-1842.42 287.64,-452.49 493.12,-751.94 616.43,-898.36 145.07,-172.25 298.18,-319.13 459.34,-440.62 161.16,-121.5 334.82,-185.92 520.98,-193.29 44.65,-3.69 93.09,-3.68 145.35,0.02 97.08,8.01 205.79,35.09 326.11,81.25zm-7071.48 3613.21c376.44,-479.87 719.87,-936.96 1030.29,-1371.29 310.43,-434.34 573.79,-808.69 790.1,-1123.06 -400.42,89.17 -746.34,197.88 -1037.78,326.12 -291.44,128.25 -543.81,253.27 -757.14,375.07 -206.07,113.18 -374.95,223.29 -506.62,330.33 -131.68,107.04 -237.42,207.93 -317.21,302.67 -87.04,103.35 -155.58,201.17 -205.62,293.45 135.21,44.94 257.77,106.94 367.68,186.01 109.91,79.07 208.71,161.06 296.39,245.98 87.69,84.92 160.4,167.06 218.14,246.43 57.74,79.37 98.34,142.14 121.77,188.29z"/>
   <path class="fil0" d="M15519.75 2516.05c245.12,-36.28 391.31,-0.27 438.54,108.03 47.23,108.29 34.25,271.63 -38.94,490.05 -73.19,218.4 -191.91,482.64 -356.15,792.71 -164.23,310.06 -342.6,653.36 -535.11,1029.88 -78.67,142.72 -153.63,285.14 -224.87,427.26 -56.91,116.89 -117.45,238.09 -181.63,363.6 -64.16,125.5 -114.02,225.78 -149.53,300.84 -42.42,99.66 -84.73,203.33 -126.95,310.99 -42.22,107.67 -77.1,210.72 -104.64,309.16 -27.52,98.44 -40.5,181.64 -38.92,249.63 1.57,67.99 21.24,112.45 59,133.37 29.94,5.54 60.06,19.08 90.38,40.61 53,35.7 83.87,81.23 92.61,136.6 0.92,39.99 -2.05,72.29 -8.94,96.9 -13.94,41.22 -39.28,73.37 -76.02,96.43 -36.73,23.08 -62.44,39.22 -77.13,48.44 -147.68,60.29 -281.39,79.34 -401.16,57.17 -127.4,-29.53 -225.87,-97.53 -295.42,-203.98 -61.74,-91.07 -98.46,-228.27 -110.18,-411.62 -11.7,-183.35 42.06,-436.21 161.29,-758.59 -28.09,74.44 -83.14,191.18 -165.17,350.21 -82.02,159.04 -191.99,318.38 -329.9,478.02 -137.91,159.64 -304.14,303.59 -498.68,431.86 -194.55,128.26 -418.37,198.83 -671.49,211.72 -297.94,8.57 -514.32,-81.73 -649.15,-270.94 -134.82,-189.2 -208.74,-403.48 -221.75,-642.81 -10.77,-143.35 -8.44,-283.79 7,-421.29 15.44,-137.52 40.28,-271.79 74.5,-402.84 54.87,-204.87 126.58,-407.13 215.11,-606.76 88.54,-199.64 161.27,-357.91 218.18,-474.8 114.02,-225.79 237.71,-436.34 371.07,-631.68 133.35,-195.32 261.69,-366.19 385,-512.62 123.13,-154.41 268.75,-302.66 436.89,-444.77 138.93,-115.65 307.76,-227.77 506.48,-336.33 198.73,-108.57 416.93,-180.69 654.62,-216.35 29.75,-2.45 81.78,-8.75 156.07,-18.9 74.31,-10.14 154.37,-12.75 240.2,-7.81 85.83,4.93 173.79,21.7 263.91,50.32 90.1,28.62 173.09,71.85 248.97,129.7 22.87,22.15 45.75,44.3 68.62,66.45 22.87,22.15 42.12,48.61 57.74,79.38 94.3,-111.97 181.52,-207.32 261.69,-286.06 80.16,-78.75 164.78,-125.81 253.86,-141.18zm-2094.93 3190.16c21.2,-49.83 69.14,-151.96 143.83,-306.38 74.67,-154.41 165.48,-336.21 272.43,-545.39 106.95,-209.17 224.78,-431.26 353.49,-666.28 128.71,-235.01 261.41,-458.33 398.12,-669.96 -1.48,-63.99 -25.1,-118.14 -70.85,-162.44 -22.69,-14.16 -45.28,-24.31 -67.78,-30.46 -217.04,-38.18 -491.37,104.69 -822.99,428.58 -331.61,323.9 -696.99,878.96 -1096.15,1665.22 -199.39,401.12 -324.66,703.96 -375.81,908.53 -51.16,204.56 -68.09,358.22 -50.8,460.97 25.1,118.13 82.57,185.52 172.39,202.14 111.78,-1.23 222.53,-46.43 332.26,-135.63 109.73,-89.2 215.24,-200.09 316.51,-332.67 101.27,-132.57 194.92,-272.53 280.94,-419.87 86.03,-147.34 157.49,-279.47 214.41,-396.36z"/>
   <path class="fil0" d="M19296.17 2408.5c195.46,72 332.29,186.91 410.49,344.73 78.19,157.83 108.54,341.64 91.05,551.44 -12.47,105.2 -32.28,215.03 -59.43,329.46 -19.92,105.83 -48.84,224.4 -86.79,355.76 -37.94,131.35 -84.91,275.47 -140.9,432.36 -56.54,132.89 -113.04,267.77 -169.49,404.66 -56.45,136.89 -124.01,276.7 -202.69,419.43 -63.8,141.49 -158.71,307.6 -284.71,498.32 -126.01,190.72 -268.9,376.81 -428.67,558.29 -159.76,181.49 -332.97,346.04 -519.61,493.69 -186.63,147.63 -372.57,245.13 -557.81,292.49 -81.46,22.76 -163.1,37.51 -244.93,44.27 -66.95,5.53 -137.81,3.37 -212.58,-6.48 -74.76,-9.86 -142.46,-36.32 -203.08,-79.39 -83.32,-57.23 -127.91,-131.69 -133.75,-223.35 -5.86,-91.68 1.73,-166.44 22.74,-224.26 13.95,-41.22 35.61,-71.06 65,-89.52 29.39,-18.45 58.87,-32.9 88.44,-43.36 29.76,-2.46 67.05,-1.53 111.87,2.78 96.71,-7.99 197.88,-64.43 303.52,-169.31 105.65,-104.9 205.43,-221.32 299.35,-349.29 108.44,-145.18 212.69,-310.05 312.75,-494.62 121.46,-226.4 275.75,-563.7 462.86,-1011.89 187.12,-448.19 333.7,-957.15 439.73,-1526.85 -103.22,48.58 -196.96,104.41 -281.2,167.46 -84.26,63.06 -159.3,121.35 -225.14,174.87 -80.35,70.74 -149.63,136.56 -207.84,197.47 -232.86,243.61 -455.31,534.45 -667.34,872.51 -212.03,338.05 -407.15,682.73 -585.33,1034.02 -118.49,354.38 -220.42,699.37 -305.8,1034.98 -85.38,335.61 -156.26,653.99 -212.62,955.16 -56.37,301.15 -98.37,579.09 -126,833.81 -27.63,254.71 -43.13,470.35 -46.48,646.92 -6.51,40.61 -9.39,76.91 -8.65,108.91 0.74,31.99 1.48,63.99 2.22,95.97l2.23 95.99c-2.98,192.57 -29.49,335 -79.52,427.28 -28.47,58.45 -53.48,104.59 -75.06,138.43 -79.42,110.74 -165.48,175.94 -258.19,195.62 -92.71,19.68 -180.26,20.9 -262.65,3.66 -97.45,-24.01 -199.09,-67.7 -304.9,-131.08 -121.07,-78.15 -209.27,-185.07 -264.59,-320.74 -55.33,-135.66 -88.84,-295.17 -100.55,-478.52 -8.73,-55.37 -10.13,-115.36 -4.18,-179.96 -1.29,-55.99 1.13,-112.28 7.27,-168.89 6.14,-56.6 15.91,-117.51 29.3,-182.73 30.33,-299.01 84.51,-614.01 162.54,-945.01 78.04,-331 162.17,-640.46 252.38,-928.39 104.17,-329.15 215.86,-654.91 335.09,-977.3 48.92,-140.26 108.44,-305.45 178.57,-495.56 70.12,-190.1 149.31,-390.98 237.57,-602.61 88.26,-211.64 182.05,-425.74 281.37,-642.29 99.32,-216.57 202.65,-421.43 309.96,-614.61 14.14,-33.22 35.71,-67.06 64.73,-101.51 21.58,-33.84 44.92,-71.83 70.03,-113.97 25.11,-42.14 55.71,-88.74 91.78,-139.8 36.27,-43.07 81.66,-94.9 136.15,-155.5 54.49,-60.59 114.67,-117.65 180.5,-171.17 65.84,-53.52 137.49,-97.5 214.96,-131.95 77.45,-34.45 153.47,-50.74 228.06,-48.89 172.02,25.87 276.72,121.4 314.1,286.59 37.37,165.21 6.03,340.08 -94.04,524.65 -79.6,102.74 -147.86,212.56 -204.78,329.45 36.27,-43.06 67.05,-81.67 92.34,-115.81 25.3,-34.14 52.45,-68.45 81.46,-102.89 86.68,-119.35 177.35,-227.01 272.02,-322.98 79.98,-86.74 174.82,-174.72 284.56,-263.91 109.73,-89.2 223.56,-162.71 341.47,-220.53 22.14,-9.84 59,-26.92 110.61,-51.21 51.61,-24.3 112.66,-43.36 183.15,-57.2 70.49,-13.84 146.74,-20.13 228.76,-18.89 82.01,1.24 168.12,18.17 258.32,50.79z"/>
   <path class="fil0" d="M23625.79 2050.91c195.46,72.01 332.29,186.92 410.49,344.74 78.19,157.82 108.55,341.63 91.05,551.44 -12.46,105.2 -32.28,215.02 -59.43,329.46 -19.91,105.82 -48.83,224.4 -86.78,355.75 -37.94,131.36 -84.92,275.48 -140.91,432.36 -56.53,132.89 -113.03,267.78 -169.48,404.67 -56.46,136.88 -124.02,276.69 -202.7,419.42 -63.79,141.5 -158.7,307.61 -284.71,498.32 -126.01,190.72 -268.9,376.81 -428.66,558.3 -159.77,181.48 -332.97,346.04 -519.61,493.68 -186.63,147.64 -372.58,245.13 -557.81,292.49 -81.46,22.76 -163.11,37.51 -244.94,44.27 -66.95,5.53 -137.81,3.37 -212.57,-6.48 -74.77,-9.86 -142.46,-36.31 -203.09,-79.39 -83.32,-57.23 -127.9,-131.68 -133.75,-223.35 -5.86,-91.68 1.73,-166.43 22.75,-224.26 13.94,-41.22 35.61,-71.06 65,-89.52 29.38,-18.44 58.86,-32.9 88.43,-43.36 29.76,-2.46 67.05,-1.53 111.87,2.78 96.71,-7.99 197.88,-64.42 303.53,-169.31 105.64,-104.89 205.42,-221.32 299.34,-349.28 108.44,-145.19 212.69,-310.06 312.76,-494.62 121.45,-226.4 275.74,-563.71 462.86,-1011.89 187.11,-448.2 333.69,-957.15 439.73,-1526.86 -103.22,48.59 -196.96,104.42 -281.21,167.47 -84.25,63.05 -159.3,121.34 -225.14,174.86 -80.34,70.75 -149.62,136.57 -207.84,197.48 -232.86,243.61 -455.3,534.44 -667.34,872.5 -212.03,338.05 -407.14,682.73 -585.33,1034.03 -118.48,354.37 -220.41,699.36 -305.8,1034.97 -85.38,335.61 -156.26,654 -212.62,955.16 -56.37,301.16 -98.37,579.1 -126,833.81 -27.63,254.71 -43.12,470.35 -46.48,646.93 -6.5,40.61 -9.39,76.9 -8.65,108.9 0.74,31.99 1.49,63.99 2.23,95.98l2.23 95.98c-2.99,192.57 -29.5,335 -79.53,427.28 -28.46,58.45 -53.48,104.59 -75.05,138.43 -79.42,110.74 -165.49,175.94 -258.2,195.63 -92.71,19.67 -180.26,20.89 -262.65,3.65 -97.45,-24 -199.08,-67.7 -304.9,-131.08 -121.07,-78.15 -209.27,-185.07 -264.59,-320.74 -55.32,-135.66 -88.83,-295.17 -100.55,-478.51 -8.73,-55.38 -10.12,-115.37 -4.17,-179.97 -1.3,-55.99 1.12,-112.28 7.26,-168.89 6.15,-56.59 15.91,-117.51 29.3,-182.73 30.33,-299 84.51,-614.01 162.55,-945 78.04,-331.01 162.16,-640.47 252.37,-928.4 104.17,-329.15 215.87,-654.9 335.1,-977.29 48.91,-140.27 108.43,-305.46 178.56,-495.57 70.12,-190.1 149.32,-390.97 237.57,-602.61 88.26,-211.64 182.05,-425.74 281.37,-642.29 99.33,-216.56 202.65,-421.43 309.96,-614.61 14.14,-33.22 35.72,-67.06 64.74,-101.51 21.57,-33.84 44.91,-71.83 70.02,-113.97 25.11,-42.13 55.71,-88.74 91.78,-139.8 36.27,-43.07 81.66,-94.89 136.15,-155.49 54.5,-60.6 114.67,-117.66 180.51,-171.17 65.83,-53.53 137.48,-97.51 214.95,-131.96 77.46,-34.44 153.48,-50.73 228.06,-48.88 172.02,25.86 276.73,121.39 314.1,286.59 37.37,165.2 6.03,340.08 -94.03,524.64 -79.61,102.75 -147.87,212.56 -204.78,329.46 36.27,-43.07 67.04,-81.67 92.34,-115.82 25.29,-34.14 52.45,-68.44 81.46,-102.89 86.68,-119.35 177.35,-227.01 272.02,-322.98 79.97,-86.74 174.82,-174.71 284.55,-263.91 109.73,-89.2 223.56,-162.71 341.47,-220.53 22.14,-9.84 59,-26.91 110.62,-51.21 51.6,-24.3 112.66,-43.36 183.15,-57.19 70.48,-13.84 146.73,-20.14 228.75,-18.9 82.02,1.24 168.12,18.17 258.32,50.79z"/>
   <path class="fil0" d="M26902.87 1623.98c247.72,75.72 455.55,198.78 623.48,369.23 145.05,148.29 257.98,357.33 338.77,627.14 80.8,269.8 74.22,628.95 -19.72,1077.46 -40.92,163.65 -96.54,336.53 -166.85,518.64 -55.99,156.88 -132.1,329.45 -228.36,517.71 -96.25,188.26 -216.64,380.51 -361.15,576.76 -188.04,247.93 -393.6,463.24 -616.7,645.94 -223.09,182.71 -452.78,321.89 -689.07,417.53 -236.3,95.65 -473.83,137.31 -712.63,124.97 -238.8,-12.33 -460.48,-90.19 -665.06,-233.56 -181.69,-121.22 -311.03,-314.89 -388.02,-581 -76.98,-266.11 -102.35,-556.51 -76.11,-871.21 26.24,-314.69 106.41,-633.86 240.52,-957.46 134.11,-323.61 325.03,-607.84 572.77,-852.68 29.38,-18.46 55,-38.6 76.86,-60.44 21.85,-21.84 43.75,-41.68 65.7,-59.51 -1.48,-63.99 6.42,-124.75 23.72,-182.27 17.3,-57.53 36.55,-111.21 57.75,-161.04 28.46,-58.44 57.01,-112.89 85.65,-163.34 179.86,-279.3 376.59,-473.86 590.19,-583.66 213.6,-109.79 413.21,-180.37 598.82,-211.73 215.55,-25.82 432.03,-11.64 649.44,42.52zm-1893.01 4183.21c98.74,80 221.73,79.86 368.93,-0.42 147.21,-80.27 304.41,-211.45 471.61,-393.55 167.21,-182.1 331.68,-402.03 493.4,-659.8 161.72,-257.78 306.56,-520.17 434.53,-787.17 78.13,-166.73 139.59,-328.07 184.42,-484.03 44.83,-155.96 68.64,-334.23 71.45,-534.8 12.27,-113.22 2.52,-212.58 -29.28,-298.1 -24.18,-78.14 -66.9,-152.75 -128.18,-223.82 -61.27,-71.07 -151.89,-121.67 -271.84,-151.84 -52.45,-11.69 -104.75,-17.39 -156.92,-17.09 -52.17,0.3 -107.92,6.91 -167.24,19.83 -118.47,33.82 -243.65,100.25 -375.51,199.29 89.64,8.63 185.47,42.78 287.47,102.48 102.02,59.68 166.03,168.6 192.06,326.72 10.22,119.36 5.06,217.95 -15.5,295.78 -20.55,77.82 -48.92,140.28 -85.1,187.33 -36.16,47.07 -74.53,80.29 -115.07,99.66 -40.55,19.38 -75.7,30.3 -105.46,32.76 -88.9,23.36 -159.2,45.2 -210.89,65.5 -125.18,66.42 -261.83,199.92 -409.97,400.48 -148.14,200.55 -273.51,419.27 -376.09,656.13 -102.58,236.86 -168.1,464.64 -196.57,683.36 -28.46,218.72 18.12,379.16 139.75,481.3z"/>
  </g>
 </g>
</svg>
